<?xml version="1.0" standalone="no"?>
<!DOCTYPE svg PUBLIC "-//W3C//DTD SVG 20010904//EN"
 "http://www.w3.org/TR/2001/REC-SVG-20010904/DTD/svg10.dtd">
<svg version="1.0" xmlns="http://www.w3.org/2000/svg"
 width="555.000000pt" height="555.000000pt" viewBox="0 0 555.000000 555.000000"
 preserveAspectRatio="xMidYMid meet">
<metadata>
Created by potrace 1.14, written by Peter Selinger 2001-2017
</metadata>
<g transform="translate(0.000000,555.000000) scale(0.100000,-0.100000)"
fill="#000000" stroke="none">
<path d="M2490 5372 c-63 -5 -204 -33 -262 -52 -193 -63 -324 -154 -422 -295
-13 -19 -15 -18 -74 13 -246 131 -509 130 -777 -3 -217 -108 -374 -257 -443
-421 -55 -132 -41 -267 38 -357 77 -87 142 -112 340 -132 14 -2 29 -3 35 -4 5
-1 -32 -28 -82 -60 -213 -138 -402 -371 -458 -566 -20 -69 -27 -183 -14 -250
30 -158 144 -266 336 -316 253 -66 505 5 751 210 56 47 174 182 184 211 2 7
17 6 48 -5 25 -9 59 -19 75 -22 17 -3 48 -8 71 -12 74 -14 205 -4 315 24 186
47 317 119 459 253 41 39 80 71 86 72 10 0 84 -100 145 -195 73 -113 149 -315
165 -435 6 -48 6 -50 -19 -50 -20 0 -30 10 -53 56 -15 31 -44 72 -64 91 -38
38 -134 88 -190 99 -127 24 -251 -6 -293 -70 -37 -56 -25 -124 33 -183 l32
-33 -68 5 c-37 3 -94 0 -126 -5 -146 -27 -226 -99 -233 -210 -3 -50 59 -140
125 -182 l44 -28 1 -83 c0 -78 2 -86 46 -170 26 -48 41 -83 35 -78 -6 5 -40
31 -76 58 -36 27 -101 77 -145 111 -44 34 -84 66 -90 70 -21 16 -161 107 -180
118 -11 6 -38 22 -60 35 -171 107 -335 141 -470 100 -208 -64 -389 -302 -346
-457 25 -92 93 -135 199 -128 35 2 69 7 76 11 6 4 -8 -14 -31 -40 -112 -122
-175 -270 -168 -390 9 -136 89 -216 224 -221 139 -6 259 55 363 184 45 57 70
107 96 195 12 39 30 101 42 140 38 129 91 193 179 219 69 20 127 7 212 -50
137 -93 251 -213 299 -319 24 -53 53 -145 48 -151 -2 -1 -14 19 -27 46 -47 99
-108 142 -200 142 -31 0 -67 -4 -81 -10 -34 -13 -79 -60 -86 -89 -8 -30 3 -74
23 -88 13 -10 11 -12 -15 -13 -69 -2 -125 -55 -125 -118 0 -75 80 -117 203
-105 8 0 53 23 100 51 89 53 121 59 172 33 49 -24 67 -77 63 -178 -7 -136 -15
-182 -55 -310 -59 -187 -77 -378 -49 -515 21 -101 69 -210 113 -255 40 -42 97
-67 134 -61 71 13 89 19 107 34 49 42 49 45 17 129 -44 113 -60 203 -59 328 0
79 6 133 21 189 l21 79 62 1 c51 1 66 5 87 25 45 43 27 111 -39 148 -17 10
-17 13 8 54 49 83 235 299 257 299 3 0 27 -24 52 -53 64 -75 135 -111 223
-114 l69 -2 22 -48 c47 -108 147 -178 251 -178 71 0 107 20 136 76 38 71 -2
199 -89 289 l-43 45 32 -1 c47 -2 85 14 107 46 73 103 -81 302 -243 314 -37 3
-88 -8 -139 -29 -15 -6 -18 -2 -18 24 0 24 15 49 65 108 103 121 171 230 246
396 93 207 176 461 224 690 14 67 37 145 50 172 85 172 263 234 505 176 126
-29 139 -31 210 -32 79 0 198 30 262 66 139 78 227 243 190 354 -19 55 -87
125 -146 151 -90 38 -253 45 -368 15 -29 -7 -55 -12 -56 -10 -2 2 8 19 22 37
123 162 34 318 -182 320 -93 1 -180 -20 -264 -64 -35 -18 -66 -34 -70 -36 -5
-2 -8 14 -8 35 -1 83 -66 163 -158 194 -40 14 -146 17 -203 6 -20 -4 -68 -18
-105 -31 -38 -14 -69 -24 -70 -23 -1 1 -18 40 -39 87 -21 47 -41 90 -45 95 -4
6 -24 42 -45 80 -198 369 -352 548 -560 653 -110 55 -284 86 -425 74z m1476
-1491 c-7 -11 -20 -164 -20 -253 -1 -36 -4 -64 -8 -61 -5 2 -8 10 -8 17 0 8
-21 65 -46 127 -25 62 -42 115 -37 116 4 2 31 16 58 33 52 30 70 37 61 21z
m-1021 -78 c8 -24 12 -43 10 -43 -2 0 -18 20 -35 44 -28 41 -29 46 -13 55 13
7 19 6 21 -2 2 -7 10 -31 17 -54z m635 -50 c101 -215 171 -419 198 -576 9 -56
9 -288 -1 -357 -8 -56 -55 -241 -64 -250 -2 -2 -2 20 1 50 17 168 4 292 -39
366 -98 167 -344 245 -478 151 -16 -10 -30 -18 -32 -16 -1 2 -6 54 -10 114
-16 228 -15 246 28 335 48 97 167 180 287 197 19 3 36 6 37 7 1 1 15 3 31 4
23 2 31 -4 42 -25z m-657 -1285 c39 -63 43 -129 12 -243 -52 -194 -114 -342
-285 -686 -116 -234 -120 -240 -113 -183 18 155 -10 367 -77 579 -37 116 -40
141 -23 192 22 65 87 116 190 149 140 46 219 132 222 243 1 22 2 23 24 9 12
-8 35 -35 50 -60z m487 19 c89 -39 134 -109 134 -212 0 -80 -5 -92 -107 -247
-21 -32 -41 -58 -46 -58 -5 0 -19 9 -33 19 -13 11 -53 29 -88 41 -116 39 -195
13 -308 -102 -70 -70 -70 -67 4 82 77 158 125 296 150 435 4 22 6 42 5 45 -7
20 241 17 289 -3z m-433 -878 c15 -6 38 -20 50 -31 l22 -21 -68 -71 c-37 -39
-97 -103 -133 -141 l-65 -71 -26 19 c-14 11 -48 22 -75 25 l-50 4 40 88 c50
110 84 151 150 184 55 28 109 33 155 15z m-374 -556 c3 -5 -11 -35 -30 -68
l-34 -60 5 60 c3 33 5 63 6 68 0 4 11 7 24 7 14 0 27 -3 29 -7z"/>
</g>
</svg>
